<?xml version="1.0" encoding="UTF-8" standalone="no"?>
<!-- Created with Inkscape (http://www.inkscape.org/) -->

<svg
   xmlns:dc="http://purl.org/dc/elements/1.1/"
   xmlns:cc="http://creativecommons.org/ns#"
   xmlns:rdf="http://www.w3.org/1999/02/22-rdf-syntax-ns#"
   xmlns:svg="http://www.w3.org/2000/svg"
   xmlns="http://www.w3.org/2000/svg"
   xmlns:sodipodi="http://sodipodi.sourceforge.net/DTD/sodipodi-0.dtd"
   xmlns:inkscape="http://www.inkscape.org/namespaces/inkscape"
   width="600"
   height="600"
   id="svg4910"
   version="1.1"
   inkscape:version="0.47 r22583"
   sodipodi:docname="New document 15">
  <defs
     id="defs4912">
    <inkscape:perspective
       sodipodi:type="inkscape:persp3d"
       inkscape:vp_x="0 : 526.18109 : 1"
       inkscape:vp_y="0 : 1000 : 0"
       inkscape:vp_z="744.09448 : 526.18109 : 1"
       inkscape:persp3d-origin="372.04724 : 350.78739 : 1"
       id="perspective4918" />
    <inkscape:perspective
       id="perspective4905"
       inkscape:persp3d-origin="0.5 : 0.33333333 : 1"
       inkscape:vp_z="1 : 0.5 : 1"
       inkscape:vp_y="0 : 1000 : 0"
       inkscape:vp_x="0 : 0.5 : 1"
       sodipodi:type="inkscape:persp3d" />
  </defs>
  <sodipodi:namedview
     id="base"
     pagecolor="#ffffff"
     bordercolor="#666666"
     borderopacity="1.0"
     inkscape:pageopacity="0.0"
     inkscape:pageshadow="2"
     inkscape:zoom="0.93974427"
     inkscape:cx="330.53691"
     inkscape:cy="280.62376"
     inkscape:document-units="px"
     inkscape:current-layer="layer1"
     showgrid="false"
     inkscape:window-width="1564"
     inkscape:window-height="1091"
     inkscape:window-x="10"
     inkscape:window-y="68"
     inkscape:window-maximized="0" />
  <metadata
     id="metadata4915">
    <rdf:RDF>
      <cc:Work
         rdf:about="">
        <dc:format>image/svg+xml</dc:format>
        <dc:type
           rdf:resource="http://purl.org/dc/dcmitype/StillImage" />
        <dc:title></dc:title>
      </cc:Work>
    </rdf:RDF>
  </metadata>
  <g
     inkscape:label="Layer 1"
     inkscape:groupmode="layer"
     id="layer1"
     transform="translate(-93.991071,-212.98596)">
    <path
       style="fill:#000000;fill-opacity:1;stroke:none"
       d="m 669.08434,247.59889 c -124.67058,0.7349 -249.3467,-0.1383 -374.01691,0.3307 -33.87623,0.2722 -40.95704,1.2158 -46.26434,2.0755 -32.00448,5.1843 -45.23031,11.3804 -65.09375,30.5938 -22.93655,22.1859 -38.60957,46.0482 -52.5,79.875 -4.47703,10.9027 -12.02743,32.8108 -15.5,44.9375 l -1.5,5.25 17.375,-0.031 6.34375,-10.2812 c 15.05368,-24.4711 33.05719,-45.1338 47.46875,-54.5 17.98359,-11.6876 41.9967,-17.1622 75.5625,-17.1875 l 11.34375,0 c -2.59894,29.8039 -4.5922,59.6613 -6.75,89.5 -6.7028,93.2426 -6.80304,94.4252 -10.5625,118.5 -10.95429,70.1488 -20.59535,96.734 -49.8125,137.375 -26.32877,36.6233 -30.84823,45.1838 -33.03125,62.5937 -3.03185,24.1795 9.68335,44.3753 33.03125,52.5 10.88818,3.5794 23.55169,3.6494 34.03125,-1.2187 l 0,0.031 c 12.05443,-5.9343 26.10102,-22.3429 34.84375,-40.6876 15.98498,-33.5407 33.7972,-126.3399 46,-239.5937 1.03409,-9.5973 13.03125,-174.3555 13.03125,-178.7938 l 140.25,-0.2062 c -9.2089,64.1871 -14.80198,128.8992 -20.3125,193.5 -1.71456,22.4649 -2.34311,96.7243 -1,117.1563 3.75185,57.0751 12.98883,92.6307 29.90625,115 14.68022,19.4109 32.21365,31.3234 52.8125,35.9062 9.23916,2.0555 28.46383,1.5225 37.84375,-1.0625 15.80602,-4.3559 32.79166,-14.8575 47.0625,-29.0937 18.53653,-18.4918 30.48471,-41.7555 39.46875,-76.9063 3.46404,-13.5533 8.96875,-42.8191 8.96875,-47.5937 l -17.40625,0.3437 c -2.9839,14.4932 -4.15717,19.0072 -6.46875,24.6875 -6.60407,16.2281 -19.40371,28.3006 -36.125,34.1562 -20.73127,6.1896 -42.77197,3.0609 -61.1875,-7.8124 -17.89762,-11.6913 -28.8548,-31.3222 -33.40625,-59.875 -4.76878,-99.6377 6.76971,-199.5849 20.59375,-298.1563 l 135,-0.25 0,-81.0625 z"
       id="rect4886"
       sodipodi:nodetypes="ccsssccccscccssscccsscccssssssccscccccc" />
  </g>
</svg>
